<svg xmlns="http://www.w3.org/2000/svg" viewBox="0 0 1600 1000">
  <defs>
    <radialGradient id="bg-b" cx="48%" cy="42%" r="72%">
      <stop offset="0" stop-color="#2f3335"/>
      <stop offset="0.48" stop-color="#101113"/>
      <stop offset="1" stop-color="#020203"/>
    </radialGradient>
    <linearGradient id="beam-b" x1="0" y1="0.5" x2="1" y2="0.5">
      <stop offset="0" stop-color="#ffffff" stop-opacity="0"/>
      <stop offset="0.46" stop-color="#ffffff" stop-opacity="0.78"/>
      <stop offset="1" stop-color="#ffffff" stop-opacity="0"/>
    </linearGradient>
    <filter id="soft-b">
      <feGaussianBlur stdDeviation="18"/>
    </filter>
  </defs>
  <rect width="1600" height="1000" fill="url(#bg-b)"/>
  <path d="M60 300 C310 250 490 472 780 420 C1074 368 1250 250 1545 286" fill="none" stroke="#ffffff" stroke-opacity="0.12" stroke-width="48" filter="url(#soft-b)"/>
  <path d="M40 514 C306 400 468 656 760 514 C1056 370 1222 482 1580 408" fill="none" stroke="url(#beam-b)" stroke-width="12"/>
  <g opacity="0.76">
    <rect x="458" y="258" width="684" height="462" rx="56" fill="#ffffff" fill-opacity="0.08" stroke="#ffffff" stroke-opacity="0.18"/>
    <rect x="514" y="318" width="572" height="76" rx="38" fill="#ffffff" fill-opacity="0.07" stroke="#ffffff" stroke-opacity="0.14"/>
    <circle cx="562" cy="356" r="14" fill="#ffffff" fill-opacity="0.58"/>
    <rect x="612" y="344" width="298" height="20" rx="10" fill="#ffffff" fill-opacity="0.34"/>
    <rect x="514" y="430" width="260" height="206" rx="34" fill="#ffffff" fill-opacity="0.08" stroke="#ffffff" stroke-opacity="0.16"/>
    <rect x="826" y="430" width="260" height="206" rx="34" fill="#ffffff" fill-opacity="0.08" stroke="#ffffff" stroke-opacity="0.16"/>
    <rect x="562" y="486" width="160" height="18" rx="9" fill="#ffffff" fill-opacity="0.34"/>
    <rect x="562" y="530" width="106" height="18" rx="9" fill="#ffffff" fill-opacity="0.2"/>
    <rect x="874" y="486" width="160" height="18" rx="9" fill="#ffffff" fill-opacity="0.34"/>
    <rect x="874" y="530" width="106" height="18" rx="9" fill="#ffffff" fill-opacity="0.2"/>
  </g>
  <g opacity="0.86">
    <circle cx="800" cy="524" r="92" fill="#ffffff" fill-opacity="0.14" stroke="#ffffff" stroke-opacity="0.5"/>
    <path d="M760 525l28 30 56-72" fill="none" stroke="#ffffff" stroke-width="12" stroke-linecap="round" stroke-linejoin="round"/>
  </g>
</svg>
